<?xml version="1.0" encoding="UTF-8"?>
<svg id="Layer_2" data-name="Layer 2" xmlns="http://www.w3.org/2000/svg" viewBox="0 0 387.26 215.66">
  <defs>
    <style>
      .cls-1 {
        fill: #f83293;
      }

      .cls-2 {
        fill: #fe1518;
      }

      .cls-3 {
        fill: #06b9fc;
      }

      .cls-4 {
        fill: #ffb207;
      }

      .cls-5 {
        fill: #25e72e;
      }

      .cls-6 {
        fill: #067ce0;
      }

      .cls-7 {
        fill: #b154e8;
      }

      .cls-8 {
        fill: #fc690a;
      }
    </style>
  </defs>
  <g id="Layer_1-2" data-name="Layer 1">
    <g>
      <path class="cls-7" d="M310.18,132.74c-3.56,0-15.08-.36-17.75-.98-2.69-.62-5.01-1.69-6.94-3.21-1.93-1.52-3.4-3.56-4.4-6.11-1-2.56-1.5-5.73-1.5-9.53V45.32h-7.77v64.17c0,2.28.05,4.61.16,6.99.1,2.38.43,4.69.98,6.94.55,2.24,1.41,4.35,2.59,6.32,1.17,1.97,2.86,3.68,5.07,5.13,2.21,1.45,5.02,2.61,8.44,3.47,3.38.85,15.73,1.32,20.81,1.33h0s77.38,0,77.38,0v-6.92h-77.07ZM280.23,132.89c-2.05,0-3.72-1.66-3.72-3.72s1.66-3.72,3.72-3.72,3.72,1.66,3.72,3.72-1.66,3.72-3.72,3.72Z"/>
      <path class="cls-8" d="M339.58,9.83h-47.12v1.99h0s0,1.86,0,1.86v3.13h0l.32,104.32,7.77-.14v-.04h23.94v-6.92h-23.94v-40.15h20.82v-6.94h-20.82l-.33-50.12h39.35v-6.98ZM296.77,17.66c-2.05,0-3.72-1.66-3.72-3.72s1.66-3.72,3.72-3.72,3.72,1.66,3.72,3.72-1.66,3.72-3.72,3.72Z"/>
      <path class="cls-4" d="M44.32,23.77h16.88v-6.94h-18.95c-6.7,0-11.88.92-15.53,2.74-1.18.59-2.23,1.25-3.2,1.95-.51-.11-1.04-.17-1.59-.17-4.12,0-7.46,3.34-7.46,7.46,0,1.78.62,3.41,1.66,4.69-.19.94-.35,1.9-.44,2.9-.31,3.59-.47,7.11-.47,10.56v83.59c-2.59,1.16-4.6,3.39-5.44,6.13-1.5.03-3,.05-4.36.08-3.02.07-5.42,2.42-5.42,5.42v73.47h7.77v-72.25s.05,0,.07,0c.81,0,1.56,0,2.26-.01.97,2.35,2.82,4.24,5.13,5.27v24.33h7.77v-24.2c3.48-1.41,5.96-4.74,6.16-8.68,4.48-2.28,8.42-4.82,11.81-7.6,4.87-4,8.8-9.13,11.81-15.38,3-6.25,5.16-13.95,6.47-23.09,1.02-7.1,1.64-51.19,1.86-60.77h-7.66v.23c0,8.7-.48,51.98-1.45,58.36-.97,6.39-2.24,11.88-3.83,16.47-1.59,4.59-3.44,8.41-5.54,11.44-2.11,3.04-4.28,5.54-6.52,7.51-2.24,1.97-4.5,3.54-6.78,4.71-.85.44-1.66.84-2.46,1.23-1.03-1.22-2.35-2.19-3.85-2.8V43.55c0-2.85.23-5.35.68-7.49,3.28-.79,5.72-3.73,5.72-7.25,0-.6-.08-1.17-.21-1.73,1.57-1.07,3.43-1.87,5.62-2.38,2.69-.62,5.87-.93,9.53-.93ZM25,139.61c0,3.17-2.57,5.74-5.74,5.74s-5.74-2.57-5.74-5.74,2.57-5.74,5.74-5.74,5.74,2.57,5.74,5.74ZM24.93,32.15h0c-.2.18-.41.34-.64.48,0,0,0,0,0,0-.22.14-.45.26-.7.35-.07.03-.14.04-.2.06-.19.07-.38.13-.58.17-.28.05-.57.09-.86.09s-.6-.03-.88-.09c-.12-.03-.24-.07-.36-.11-.15-.04-.31-.08-.46-.14-.17-.07-.32-.16-.47-.25-.09-.05-.18-.09-.26-.14-.19-.12-.36-.26-.52-.41-.04-.03-.08-.06-.11-.09-.19-.18-.36-.37-.51-.58,0,0-.01-.02-.02-.03-.49-.66-.8-1.47-.86-2.34h0c0-.11-.03-.22-.03-.33,0-1.81,1.07-3.36,2.61-4.07t0,0c.11-.05.22-.09.34-.14.19-.07.38-.14.58-.18.06-.01.13-.02.19-.03.26-.05.52-.08.79-.08.62,0,1.21.13,1.75.35,1.35.57,2.36,1.78,2.66,3.24.06.29.09.6.09.91,0,.25-.03.48-.07.72-.02.11-.04.23-.06.34h0c-.22.9-.7,1.69-1.37,2.28Z"/>
      <path class="cls-5" d="M241.73,69.18c0-2.27-1.12-4.27-2.84-5.49v-27.69h-17.5c-6.7,0-11.86.92-15.48,2.74-3.62,1.83-6.28,4.19-7.97,7.09-1.69,2.9-2.68,6.15-2.95,9.73-.28,3.59-.41,7.11-.41,10.56v50.3h-43.4v6.92h43.4v14.74h7.77v-14.73h28.79v33.18h-11.04c-1.16-1.97-3.31-3.3-5.76-3.3s-4.6,1.33-5.76,3.3H37.61v6.76h170.93c1.16,1.99,3.31,3.33,5.78,3.33s4.62-1.34,5.78-3.33h18.81l-.02-4.64v-84.01c1.72-1.22,2.84-3.22,2.84-5.49ZM216.74,162.72s-.07.06-.1.08c-.11.09-.22.18-.34.25-.57.37-1.25.59-1.98.59-2.04,0-3.7-1.65-3.7-3.7s1.65-3.7,3.7-3.7c.52,0,1.01.11,1.46.3h-.03c1.31.57,2.23,1.88,2.23,3.4,0,1.1-.48,2.08-1.24,2.76ZM238.72,69.18c0,2.05-1.66,3.72-3.72,3.72-1.54,0-2.85-.93-3.42-2.26-.19-.44-.29-.93-.29-1.44,0-2.05,1.66-3.72,3.72-3.72,1.54,0,2.85.93,3.42,2.26.19.44.29.93.29,1.44ZM202.33,116.44v-53.72c0-3.87.41-7.08,1.24-9.63.83-2.55,2.12-4.57,3.88-6.06,1.76-1.48,3.99-2.54,6.68-3.16,2.69-.62,5.9-.93,9.63-.93h7.35v20.75c-1.72,1.22-2.85,3.22-2.85,5.49s1.13,4.27,2.85,5.49v41.77h-28.79Z"/>
      <path class="cls-3" d="M181.31,129.56c-.69-2.59-1.49-5.56-2.38-8.9-.9-3.34-1.83-6.81-2.8-10.42-.97-3.61-1.93-7.21-2.9-10.82-.97-3.61-1.86-6.95-2.69-10.02-.81-3.01-1.51-5.65-2.09-7.92.72-1.08,1.14-2.38,1.14-3.78,0-1.17-.3-2.28-.82-3.24,1.72-2.23,3.24-4.69,4.56-7.38,1.73-3.52,3.12-7.56,4.19-12.12,1.07-4.56,1.86-9.69,2.38-15.39.52-5.69.78-12.12.78-19.28v-6.8h-18.95c-4.49,0-8.27.36-11.34,1.07-3.07.72-5.59,1.71-7.56,3-1.97,1.28-3.5,2.77-4.61,4.47-1.1,1.7-1.9,3.5-2.38,5.41-.48,1.91-.78,3.91-.88,5.99-.1,2.09-.16,4.11-.16,6.08v46.57c-2.89.22-7.07.27-10.42.27-.05,0-.09,0-.14,0h-46.02v6.76h48.55c3.9.02,6.57-.23,8.03-.42v12.51c-1.79,1.21-2.97,3.26-2.97,5.58s1.18,4.37,2.97,5.58v21.73h7.66v-21.84c1.71-1.22,2.82-3.21,2.82-5.47s-1.12-4.25-2.82-5.47v-13.74c3.66-1.31,7.01-2.73,10.05-4.25,2.34-1.17,4.54-2.46,6.6-3.87.71.45,1.51.77,2.36.94l13.83,53.7h8.29c-.83-3.1-1.59-5.95-2.28-8.54ZM142.28,110.8c0,2.05-1.66,3.72-3.72,3.72-.25,0-.5-.03-.74-.08-1.69-.35-2.95-1.85-2.95-3.64,0-2.05,1.66-3.72,3.72-3.72.26,0,.5.03.74.08,1.69.35,2.95,1.85,2.95,3.64ZM162.76,81.68c-2.19,0-3.97-1.78-3.97-3.97s1.78-3.97,3.97-3.97,3.97,1.78,3.97,3.97-1.78,3.97-3.97,3.97ZM162.44,70.88c-3.54.16-6.37,3.01-6.51,6.55-.12.09-.24.2-.37.29-2.24,1.67-4.5,3-6.78,3.98s-4.39,1.83-6.32,2.55v-47.68c0-3.34.41-6.11,1.24-8.32.83-2.21,2.12-3.95,3.88-5.23,1.76-1.28,3.99-2.19,6.68-2.73,2.69-.54,5.87-.81,9.53-.81h9.11v8.41c0,7.51-.48,14.03-1.45,19.55-.97,5.52-2.24,10.23-3.83,14.13-1.5,3.69-3.23,6.78-5.19,9.3Z"/>
      <path class="cls-2" d="M120.03,62.37c0-2.26-1.12-4.26-2.83-5.48v-21.07h-17.5c-6.7,0-11.86.87-15.48,2.6-3.62,1.73-6.28,3.97-7.97,6.72-1.69,2.75-2.68,5.82-2.95,9.22-.28,3.4-.41,6.73-.41,10v76.2h7.77v-32.66h0v-6.57h0v-40.2c0-3.66.41-6.7,1.24-9.12.83-2.42,2.12-4.33,3.88-5.74,1.76-1.4,3.99-2.4,6.68-2.99,2.69-.59,5.9-.88,9.63-.88h7.35v14.48c-1.73,1.22-2.86,3.22-2.86,5.5s1.13,4.28,2.86,5.5v33.45h0v6.57h0v8.03h7.77v-48.07c1.71-1.22,2.83-3.22,2.83-5.48ZM113.31,66.08c-2.05,0-3.71-1.66-3.71-3.7,0-2.04,1.67-3.7,3.71-3.7s3.71,1.66,3.71,3.7c0,2.04-1.67,3.7-3.71,3.7Z"/>
      <rect class="cls-3" x="65.05" y="86.37" width="23.34" height="6.76"/>
      <g>
        <path class="cls-1" d="M272.48,165.27c-2.69-.62-5.01-1.69-6.94-3.21-1.93-1.52-3.4-3.56-4.4-6.11-1-2.56-1.5-5.73-1.5-9.53v-3.42s0,0,0,0V35.14c0-2.79-.09-5.63-.27-8.51v-.48s-.04-.01-.04-.01c-.05-.75-.1-1.49-.16-2.24-.31-3.82-1.31-7.28-3-10.37-1.69-3.09-4.37-5.61-8.03-7.55-3.66-1.95-8.84-2.92-15.53-2.92h-10.46c-1.2-1.83-3.27-3.04-5.63-3.04s-4.42,1.21-5.63,3.04h-10.38v7.37h10.39c1.2,1.83,3.27,3.04,5.62,3.04s4.42-1.21,5.62-3.04h6.02s2.37.01,2.37.01c3.66,0,6.83.33,9.53.99,2.69.66,4.92,1.78,6.68,3.36,1.76,1.58,3.06,3.73,3.88,6.45.79,2.59,1.2,5.83,1.24,9.69v112.08c0,2.28.05,4.61.16,6.99.1,2.38.43,4.69.98,6.94.55,2.24,1.41,4.35,2.59,6.32,1.17,1.97,2.86,3.68,5.07,5.13,2.21,1.45,5.02,2.61,8.44,3.47,3.42.86,21.17,1.34,26.14,1.34v-6.94c-6.2-.02-20.14-.37-22.77-.98ZM216.53,3.01c.11,0,.21.02.32.03h-.18c1.95.12,3.49,1.72,3.49,3.69s-1.47,3.49-3.35,3.68c-.01,0-.02,0-.03,0h-.5c-.13,0-.26-.02-.38-.04-.07-.01-.14-.02-.2-.04-1.65-.38-2.88-1.85-2.88-3.61,0-1.52.92-2.82,2.22-3.4.07-.03.14-.05.21-.07.12-.04.24-.08.36-.11.2-.05.41-.08.62-.1h-.02c.11,0,.21-.03.32-.03Z"/>
        <path class="cls-1" d="M216.22,3.04h.45c-.08,0-.15-.02-.22-.02s-.15.02-.22.02Z"/>
      </g>
      <path class="cls-7" d="M280.18,122.34c-3.72,0-6.73,3.01-6.73,6.73s3.01,6.73,6.73,6.73,6.73-3.01,6.73-6.73-3.01-6.73-6.73-6.73ZM280.18,132.78c-2.05,0-3.72-1.66-3.72-3.72s1.66-3.72,3.72-3.72,3.72,1.66,3.72,3.72-1.66,3.72-3.72,3.72Z"/>
      <path class="cls-8" d="M296.47,7.18c-3.55,0-6.42,2.88-6.42,6.42s2.88,6.42,6.42,6.42,6.42-2.88,6.42-6.42-2.88-6.42-6.42-6.42ZM296.47,17.15c-1.96,0-3.55-1.59-3.55-3.55s1.59-3.55,3.55-3.55,3.55,1.59,3.55,3.55-1.59,3.55-3.55,3.55Z"/>
      <path class="cls-6" d="M352.46,152.04c-2.69-.62-5.01-1.69-6.94-3.21-1.93-1.52-3.4-3.56-4.4-6.11-1-2.56-1.5-5.73-1.5-9.53v-11.72c1.68-1.22,2.78-3.2,2.78-5.44s-1.1-4.22-2.78-5.44v-63.22h0v-13.44h-7.76v76.57c-1.75,1.21-2.9,3.24-2.9,5.53s1.15,4.32,2.9,5.53v8.21c0,2.28.05,4.61.16,6.99.1,2.38.43,4.69.98,6.94.55,2.24,1.41,4.35,2.59,6.32,1.17,1.97,2.86,3.68,5.07,5.13,2.21,1.45,5.02,2.61,8.44,3.47,3.42.86,16.24,1.34,21.21,1.34v-6.94c-3.45,0-15.15-.36-17.85-.98ZM339.39,116.03c0,2.05-1.66,3.71-3.7,3.71-2.04-.01-3.7-1.67-3.7-3.71s1.66-3.71,3.7-3.71c2.04.01,3.7,1.67,3.7,3.71Z"/>
    </g>
  </g>
</svg>